<svg xmlns="http://www.w3.org/2000/svg" viewBox="0 0 28.95 30"><defs><style>.\37 4091b27-c06e-4ee7-8974-6f8fd86c8544{fill:#b0cf4c;}</style></defs><title>Asset 2</title><g id="59d4af66-29b6-4dc6-a82c-dc4500f035d9" data-name="Layer 2"><g id="d2af394a-db50-4249-87e8-62b908d4d83b" data-name="Layer 1"><path class="74091b27-c06e-4ee7-8974-6f8fd86c8544" d="M29,3.57v21.1L28.6,25c-1.56,1.55-3.11,3.11-4.67,4.67l-.32.34H2.05a2.89,2.89,0,0,1-1.49-.95A2.88,2.88,0,0,1,0,27.54v-24s0-.11,0-.17A2.52,2.52,0,0,1,2.3,1.14c.33,0,.66,0,1,0,.13,0,.22,0,.22-.19A.93.93,0,0,1,4.16,0h.53a.93.93,0,0,1,.64.92c0,.12,0,.18.17.18H8.37c.11,0,.17-.05.17-.18A1,1,0,0,1,9.14,0h.59a.93.93,0,0,1,.62.9c0,.14.06.2.19.2h2.81a.19.19,0,0,0,.22-.21A1,1,0,0,1,14.18,0h.59a.93.93,0,0,1,.6.88.2.2,0,0,0,.22.22H18.4c.13,0,.2-.05.2-.2a.93.93,0,0,1,.62-.9h.58a1,1,0,0,1,.61.89c0,.15.09.21.23.21h2.78c.12,0,.2,0,.2-.18A.92.92,0,0,1,24.26,0h.58c.29.17.57.38.57.73s.19.4.47.37.27,0,.41,0a2.63,2.63,0,0,1,2.07,1A2.85,2.85,0,0,1,29,3.57ZM14.47,8.28H1.91c-.44,0-.44,0-.44.45V27.29q0,1.29,1.2,1.29h20c.43,0,.56-.13.57-.56,0-.66,0-1.33,0-2a1.82,1.82,0,0,1,1.57-1.68,16.48,16.48,0,0,1,2,0c.6,0,.68-.09.68-.68V8.75c0-.47,0-.47-.47-.47Zm-1.6-4.77c.12.1.1.21.1.32,0,.65,0,1.31,0,2,0,.27.1.36.36.36s.38-.06.37-.35c0-.8,0-1.6,0-2.4s.12-.75-.77-.77c-.3,0-.43.09-.48.39-.08.56-.19,1.12-.29,1.67,0,.08,0,.17-.14.2-.09-.5-.18-1-.28-1.49-.18-.86,0-.76-1-.77-.27,0-.38.09-.38.37,0,.93,0,1.86,0,2.78,0,.27.08.36.35.37s.38-.11.37-.38c0-.66,0-1.31,0-2a.42.42,0,0,1,.06-.32.79.79,0,0,1,.05.13c.15.75.31,1.49.46,2.24a.32.32,0,0,0,.37.28.31.31,0,0,0,.36-.29c0-.31.11-.61.17-.92C12.68,4.46,12.77,4,12.87,3.51Zm4.85,1.78h-.1l-.24-1.37c-.07-.44-.08-.45-.51-.44s-.34,0-.25.34c.2.72.41,1.43.61,2.14.09.35.05.45-.3.57-.15,0-.17.14-.16.27s.07.2.21.22a.77.77,0,0,0,1-.61c.24-.81.45-1.64.68-2.45.16-.56,0-.47-.41-.48-.2,0-.23.15-.25.29C17.89,4.28,17.81,4.78,17.72,5.29ZM16.22,5h0c0-.3,0-.61,0-.91a.6.6,0,0,0-.57-.65,1.91,1.91,0,0,0-.79,0,.66.66,0,0,0-.47.32c-.07.13-.2.29,0,.44a.54.54,0,0,0,.58-.11.32.32,0,0,1,.4-.2.27.27,0,0,1,.2.29c0,.21-.16.28-.33.33s-.41.11-.61.19a.65.65,0,0,0-.39.68c0,.29,0,.59.33.72A.73.73,0,0,0,15.35,6c.1-.09.14-.14.25,0s.36.11.54.08.08-.22.08-.33S16.22,5.28,16.22,5Z"/><path class="74091b27-c06e-4ee7-8974-6f8fd86c8544" d="M17.78,15.53a3.27,3.27,0,0,1,4.93.41A5.17,5.17,0,0,1,23.3,18a9.38,9.38,0,0,1-.19,3.17,3.18,3.18,0,0,1-2.4,2.4,6.34,6.34,0,0,1-3.61-.09A3.05,3.05,0,0,1,15,20.72c0-.25,0-.5,0-.76s.08-.3.3-.3q1.23,0,2.46,0c.23,0,.3.11.3.32a4.21,4.21,0,0,0,.07.94,1,1,0,0,0,.89.86A.93.93,0,0,0,20,21a7.41,7.41,0,0,0,.07-3.28,1,1,0,0,0-1.46-.79.89.89,0,0,0-.54.65.31.31,0,0,1-.35.27q-1.17,0-2.34,0c-.22,0-.3-.08-.28-.3.05-.85.09-1.71.14-2.57s.1-1.65.15-2.48c0-.47,0-.94.07-1.4,0-.23.09-.33.33-.33H22.5c.24,0,.32.09.32.33,0,.59,0,1.19,0,1.78,0,.26-.08.34-.34.34-1.39,0-2.79,0-4.19,0-.38,0-.38,0-.4.39C17.86,14.22,17.82,14.84,17.78,15.53Z"/><path class="74091b27-c06e-4ee7-8974-6f8fd86c8544" d="M11.68,17q0,3,0,6.08c0,.42,0,.44-.42.44H8.94c-.4,0-.41,0-.41-.42V15c0-.42,0-.42-.42-.42-.59,0-1.18,0-1.76,0-.24,0-.34-.08-.33-.32q0-.69,0-1.38c0-.24.09-.33.33-.32A4.22,4.22,0,0,0,8,12.27,2.12,2.12,0,0,0,9.36,10.8a.36.36,0,0,1,.41-.31h1.52c.29,0,.39.1.39.4C11.67,12.94,11.68,15,11.68,17Z"/><path class="74091b27-c06e-4ee7-8974-6f8fd86c8544" d="M15.54,5.13c0,.4-.13.58-.36.57s-.27-.19-.27-.37.29-.51.51-.47S15.49,5.06,15.54,5.13Z"/></g></g></svg>