<svg xmlns="http://www.w3.org/2000/svg" viewBox="0 0 30 30"><defs><style>.\31 7b1cde8-5936-4f82-bbc6-8689221b2253{fill:#b0cf4c;}</style></defs><title>Asset 1</title><g id="11672ec6-de7e-4c8e-93da-c3566f85650d" data-name="Layer 2"><g id="59078fb7-c492-4c6b-ae84-489d88ff7f22" data-name="Layer 1"><path class="17b1cde8-5936-4f82-bbc6-8689221b2253" d="M16.05,30H13.89a.8.8,0,0,0-.15,0,13.29,13.29,0,0,1-3.64-.78,14.87,14.87,0,0,1-9.54-10A16.34,16.34,0,0,1,0,16.23V13.77c0-.07,0-.13,0-.2A13.65,13.65,0,0,1,1.09,9.3,14.87,14.87,0,0,1,11.55.38,16.78,16.78,0,0,1,13.89,0h2.16a.8.8,0,0,0,.15,0,14.56,14.56,0,0,1,5.09,1.35,14.76,14.76,0,0,1,8.14,9.44A16.36,16.36,0,0,1,30,13.77v2.4a1.62,1.62,0,0,0,0,.2,13.5,13.5,0,0,1-.79,3.56,14.86,14.86,0,0,1-10.73,9.68A16.22,16.22,0,0,1,16.05,30Zm12.1-15A13.15,13.15,0,1,0,14.93,28.15,13.17,13.17,0,0,0,28.15,15Z"/><path class="17b1cde8-5936-4f82-bbc6-8689221b2253" d="M14,10.72V6.41A1,1,0,0,1,16,6.34c0,.3,0,.59,0,.88,0,2.38,0,4.77,0,7.15a1.09,1.09,0,0,0,.34.82c1.36,1.34,2.71,2.71,4.06,4.06a2.18,2.18,0,0,1,.25.28.89.89,0,0,1,0,1.21.92.92,0,0,1-1.22.12,2.59,2.59,0,0,1-.35-.31c-1.46-1.46-2.9-2.92-4.38-4.36A1.82,1.82,0,0,1,14,14.76C14.06,13.41,14,12.06,14,10.72Z"/></g></g></svg>