<svg xmlns="http://www.w3.org/2000/svg" viewBox="0 0 377.99 383.95"><defs><style>.ad88add8-dbd1-4cf4-9e4d-0ac34c4706f6{fill:#fff;}</style></defs><g id="bbfcd4e0-16f0-461d-8d7a-fffa70296a2d" data-name="Layer 2"><g id="a4073eb9-b0d3-4754-bebc-adbd7516b640" data-name="Layer 1"><path class="ad88add8-dbd1-4cf4-9e4d-0ac34c4706f6" d="M163.48,0C176.66,3.78,184,14.89,193.13,23.74c3.82,3.72,6.94,8.2,10.05,12.56a9.24,9.24,0,0,0,6.22,4.11,155.36,155.36,0,0,1,39.23,13.28,5.81,5.81,0,0,0,6.76-.49c8.12-5.6,16.3-11.12,24.67-16.35a27.58,27.58,0,0,1,42.05,18,28.64,28.64,0,0,1-2.37,17.78c19.71,8.92,24.1,18.43,18.71,40.11,18.26,5.73,25.41,23.1,18.29,39.85.89.35,1.78.72,2.68,1.06,10.39,3.9,16.7,11.4,18.24,22.28s-2.36,19.72-11.16,26.19c-5.32,3.92-10.93,7.46-16.52,11a5.79,5.79,0,0,0-2.92,5.09c-.61,7.7-1.6,15.38-2.53,23.06-.37,3-1.95,5.13-5.16,5.57-4.13.56-7.05-2.42-6.57-6.93.55-5.2,1.34-10.36,2.13-16.3-1.46.76-2.3,1.1-3,1.59-20.1,13.29-40.23,26.54-60.27,39.92-8.66,5.78-18,8.72-28.36,7.09-10.7-1.67-19.2,2.76-27.27,9.32a10.26,10.26,0,0,0,.45,1.21c4.63,9.05,2.64,17.08-5.89,22.75q-37.12,24.69-74.32,49.24c-4.26,2.82-8.5,5.66-13.38,8.91,2.47.85,4.35,1.6,6.29,2.15a161.82,161.82,0,0,0,195.59-97.74c.36-.93.68-1.88,1.1-2.78,1.6-3.42,4.85-4.82,8-3.48a5.72,5.72,0,0,1,3,7.82c-4.66,10.2-8.69,20.83-14.56,30.3-28.68,46.33-70.22,73.71-124.06,82.3-4.55.73-9.14,1.16-13.71,1.72H162.73a21.07,21.07,0,0,0-2.87-.63,154.74,154.74,0,0,1-48-10.8Q22.89,336.12,3,241.89C1.61,235.33,1,228.62,0,222V199.48c.82-6.17,1.31-12.41,2.53-18.5Q22.2,82.76,115.7,46.64c7.38-2.83,15.17-4.6,23-6.93-.43-.78-.83-1.52-1.23-2.26-8.05-14.64-1-31.9,15-36.63a18.94,18.94,0,0,0,2-.82ZM208.9,271.18a3.54,3.54,0,0,0,.88-.22,36.75,36.75,0,0,0,3.16-2c9.42-7.1,19.91-10.25,31.67-8.53a25.87,25.87,0,0,0,18.58-4.09Q311,224.74,358.76,193c7.68-5.11,9.54-14.7,4.61-22-4.82-7.16-14.24-9-21.86-4.24-3.7,2.32-7.28,4.83-10.95,7.21-3.94,2.57-7.46,2.21-9.52-.91s-1-6.37,3-9.08c5.5-3.68,11.11-7.21,16.53-11a15.7,15.7,0,0,0,4.32-21.83c-4.8-7.16-14.25-9.05-21.85-4.27-3.81,2.39-7.49,5-11.27,7.41s-7.21,2-9.21-1.08-1.11-6.3,2.68-8.86c5.38-3.63,10.85-7.13,16.21-10.79,7.94-5.42,10-14.71,5-22.22s-14.4-9.17-22.42-4c-3.89,2.5-7.66,5.19-11.59,7.61-3.27,2-6.68,1.17-8.47-1.82s-.83-6.2,2.39-8.39c5.88-4,11.93-7.78,17.73-11.89,5.57-4,7.51-9.67,6.09-16.18-1.36-6.24-5.47-10.2-11.76-11.8-5-1.27-9.31.22-13.44,3Q254.61,68,224.12,88.13c-5.28,3.49-8.84,2.35-11.05-3.49-1.8-4.79-3.62-9.57-5.32-14.39C199.83,47.73,184.81,30.39,167.24,15c-4.23-3.72-9.32-4.11-14.34-1.44s-7.49,7.14-6.61,12.73c.46,2.95,2,5.85,3.58,8.48,11.28,19.1,15.25,39.58,10.67,61.26-5.14,24.29-11,48.43-16.66,72.61a7.57,7.57,0,0,0,1.25,6.55q30.93,46.47,61.71,93C207.51,269.23,208.23,270.22,208.9,271.18ZM73.54,196.71C54,209.6,34.9,222.15,15.92,234.85a4.74,4.74,0,0,0-1.37,4Q31.07,320.53,106,357.18a5,5,0,0,0,5.73-.41c12.22-8.24,24.54-16.32,36.82-24.45,3.61-2.39,7.19-4.8,10.94-7.3-1-1.5-1.67-2.66-2.43-3.78L95.5,229.44a17.74,17.74,0,0,1-2.14-3.51c-1.09-2.87-.54-5.47,2.12-7.25s5.24-1.39,7.48.81a17.92,17.92,0,0,1,2.22,3q31,46.19,62,92.39c.75,1.11,1.53,2.19,2.42,3.47,11.33-7.5,22.36-14.79,33.37-22.1,4.8-3.19,5.07-4.56,1.89-9.37l-78-117.75c-2.85-4.3-4.54-4.64-8.89-1.77q-15.8,10.41-31.57,20.85c-.9.6-1.73,1.3-2.76,2.07,2.07,3.11,4,6,5.92,8.91,2.45,3.79,2.13,7.17-.83,9.24s-6.54,1.1-9.18-2.73C77.59,202.84,75.69,199.93,73.54,196.71Zm60.54-38.48c3.36-14.54,6.87-28.82,9.9-43.2,2.42-11.45,4.92-22.94,6.15-34.55,1.06-10-1.36-19.79-5.49-29.48-47.14,9.78-83.8,34.37-109,75.23-18.15,29.39-25.49,61.56-23.2,96.62,1.85-1.18,3-1.89,4.15-2.64q47.63-31.54,95.25-63.07c7.51-5,13.39-4.88,20.77.25C133,157.66,133.42,157.86,134.08,158.23ZM222.39,75l18.54-12.32-27.18-9.44C216.89,61.11,219.55,67.83,222.39,75Z"/></g></g></svg>